<svg xmlns="http://www.w3.org/2000/svg" width="760" height="460"><text x="90" y="30" font-size="18">Throughput vs decode length</text><line x1="90" x2="730" y1="390" y2="390" stroke="#000"/><line x1="90" x2="90" y1="50" y2="390" stroke="#000"/><text x="350" y="440" font-size="13">max tokens</text><text x="15" y="220" font-size="13" transform="rotate(-90 15,220.0)">output tokens/s</text><text x="90" y="410" font-size="11">64</text><text x="690" y="410" font-size="11">512</text><text x="20" y="390" font-size="11">3.2</text><text x="20" y="55" font-size="11">9.05</text><circle cx="181.43" cy="212.21" r="4" fill="#2ca02c"/><circle cx="181.43" cy="234.25" r="4" fill="#2ca02c"/><circle cx="181.43" cy="221.45" r="4" fill="#2ca02c"/><circle cx="181.43" cy="215.17" r="4" fill="#2ca02c"/><circle cx="181.43" cy="194.67" r="4" fill="#2ca02c"/><circle cx="181.43" cy="150.84" r="4" fill="#2ca02c"/><circle cx="181.43" cy="167.17" r="4" fill="#2ca02c"/><circle cx="181.43" cy="172.2" r="4" fill="#2ca02c"/><circle cx="181.43" cy="167.32" r="4" fill="#2ca02c"/><circle cx="181.43" cy="168.28" r="4" fill="#2ca02c"/><circle cx="181.43" cy="385.6" r="4" fill="#2ca02c"/><circle cx="181.43" cy="152.79" r="4" fill="#2ca02c"/><circle cx="181.43" cy="223.83" r="4" fill="#2ca02c"/><circle cx="181.43" cy="150.92" r="4" fill="#2ca02c"/><circle cx="181.43" cy="152.38" r="4" fill="#2ca02c"/><circle cx="364.29" cy="229.01" r="4" fill="#2ca02c"/><circle cx="364.29" cy="246.44" r="4" fill="#2ca02c"/><circle cx="364.29" cy="234.37" r="4" fill="#2ca02c"/><circle cx="364.29" cy="229.83" r="4" fill="#2ca02c"/><circle cx="364.29" cy="211.01" r="4" fill="#2ca02c"/><circle cx="364.29" cy="194.88" r="4" fill="#2ca02c"/><circle cx="364.29" cy="189.7" r="4" fill="#2ca02c"/><circle cx="364.29" cy="193.33" r="4" fill="#2ca02c"/><circle cx="364.29" cy="190.15" r="4" fill="#2ca02c"/><circle cx="364.29" cy="190.8" r="4" fill="#2ca02c"/><circle cx="364.29" cy="385.67" r="4" fill="#2ca02c"/><circle cx="364.29" cy="204.03" r="4" fill="#2ca02c"/><circle cx="364.29" cy="221.61" r="4" fill="#2ca02c"/><circle cx="364.29" cy="198.39" r="4" fill="#2ca02c"/><circle cx="364.29" cy="203.24" r="4" fill="#2ca02c"/><circle cx="730" cy="255.78" r="4" fill="#2ca02c"/><circle cx="730" cy="273.99" r="4" fill="#2ca02c"/><circle cx="730" cy="262.87" r="4" fill="#2ca02c"/><circle cx="730" cy="257.45" r="4" fill="#2ca02c"/><circle cx="730" cy="223.34" r="4" fill="#2ca02c"/><circle cx="730" cy="214.67" r="4" fill="#2ca02c"/><circle cx="730" cy="245.91" r="4" fill="#2ca02c"/><circle cx="730" cy="197.92" r="4" fill="#2ca02c"/><circle cx="730" cy="189.97" r="4" fill="#2ca02c"/><circle cx="730" cy="250.98" r="4" fill="#2ca02c"/><circle cx="730" cy="385.76" r="4" fill="#2ca02c"/><circle cx="730" cy="205.91" r="4" fill="#2ca02c"/><circle cx="730" cy="221.47" r="4" fill="#2ca02c"/><circle cx="730" cy="204.33" r="4" fill="#2ca02c"/><circle cx="730" cy="224.46" r="4" fill="#2ca02c"/><circle cx="90" cy="206.23" r="4" fill="#2ca02c"/><circle cx="90" cy="227.09" r="4" fill="#2ca02c"/><circle cx="90" cy="213.18" r="4" fill="#2ca02c"/><circle cx="90" cy="206.95" r="4" fill="#2ca02c"/><circle cx="90" cy="183.63" r="4" fill="#2ca02c"/><circle cx="90" cy="139.57" r="4" fill="#2ca02c"/><circle cx="90" cy="155.72" r="4" fill="#2ca02c"/><circle cx="90" cy="160.81" r="4" fill="#2ca02c"/><circle cx="90" cy="156.7" r="4" fill="#2ca02c"/><circle cx="90" cy="156.86" r="4" fill="#2ca02c"/><circle cx="90" cy="355.06" r="4" fill="#2ca02c"/><circle cx="90" cy="141.52" r="4" fill="#2ca02c"/><circle cx="90" cy="267.45" r="4" fill="#2ca02c"/><circle cx="90" cy="232.31" r="4" fill="#2ca02c"/><circle cx="90" cy="141.87" r="4" fill="#2ca02c"/><circle cx="181.43" cy="241.43" r="4" fill="#2ca02c"/><circle cx="181.43" cy="266.04" r="4" fill="#2ca02c"/><circle cx="181.43" cy="251.01" r="4" fill="#2ca02c"/><circle cx="181.43" cy="244.41" r="4" fill="#2ca02c"/><circle cx="181.43" cy="219.24" r="4" fill="#2ca02c"/><circle cx="181.43" cy="168.25" r="4" fill="#2ca02c"/><circle cx="181.43" cy="189.82" r="4" fill="#2ca02c"/><circle cx="181.43" cy="195.16" r="4" fill="#2ca02c"/><circle cx="181.43" cy="189.38" r="4" fill="#2ca02c"/><circle cx="181.43" cy="190.83" r="4" fill="#2ca02c"/><circle cx="181.43" cy="388.02" r="4" fill="#2ca02c"/><circle cx="181.43" cy="170.61" r="4" fill="#2ca02c"/><circle cx="181.43" cy="237.76" r="4" fill="#2ca02c"/><circle cx="181.43" cy="168.18" r="4" fill="#2ca02c"/><circle cx="181.43" cy="170.09" r="4" fill="#2ca02c"/><circle cx="364.29" cy="258.92" r="4" fill="#2ca02c"/><circle cx="364.29" cy="280.5" r="4" fill="#2ca02c"/><circle cx="364.29" cy="265.91" r="4" fill="#2ca02c"/><circle cx="364.29" cy="261.4" r="4" fill="#2ca02c"/><circle cx="364.29" cy="240.29" r="4" fill="#2ca02c"/><circle cx="364.29" cy="215.12" r="4" fill="#2ca02c"/><circle cx="364.29" cy="214.86" r="4" fill="#2ca02c"/><circle cx="364.29" cy="219.29" r="4" fill="#2ca02c"/><circle cx="364.29" cy="214.77" r="4" fill="#2ca02c"/><circle cx="364.29" cy="215.99" r="4" fill="#2ca02c"/><circle cx="364.29" cy="388.27" r="4" fill="#2ca02c"/><circle cx="364.29" cy="223.97" r="4" fill="#2ca02c"/><circle cx="364.29" cy="232.15" r="4" fill="#2ca02c"/><circle cx="364.29" cy="217.73" r="4" fill="#2ca02c"/><circle cx="364.29" cy="223.14" r="4" fill="#2ca02c"/><circle cx="730" cy="290.29" r="4" fill="#2ca02c"/><circle cx="730" cy="306.85" r="4" fill="#2ca02c"/><circle cx="730" cy="296.98" r="4" fill="#2ca02c"/><circle cx="730" cy="292.54" r="4" fill="#2ca02c"/><circle cx="730" cy="255.83" r="4" fill="#2ca02c"/><circle cx="730" cy="234.92" r="4" fill="#2ca02c"/><circle cx="730" cy="277.52" r="4" fill="#2ca02c"/><circle cx="730" cy="282.26" r="4" fill="#2ca02c"/><circle cx="730" cy="277.51" r="4" fill="#2ca02c"/><circle cx="730" cy="279.15" r="4" fill="#2ca02c"/><circle cx="730" cy="388.42" r="4" fill="#2ca02c"/><circle cx="730" cy="254.49" r="4" fill="#2ca02c"/><circle cx="730" cy="231.22" r="4" fill="#2ca02c"/><circle cx="730" cy="234.44" r="4" fill="#2ca02c"/><circle cx="730" cy="252.53" r="4" fill="#2ca02c"/><circle cx="90" cy="232.61" r="4" fill="#2ca02c"/><circle cx="90" cy="258.02" r="4" fill="#2ca02c"/><circle cx="90" cy="242.26" r="4" fill="#2ca02c"/><circle cx="90" cy="235.4" r="4" fill="#2ca02c"/><circle cx="90" cy="211.81" r="4" fill="#2ca02c"/><circle cx="90" cy="154.36" r="4" fill="#2ca02c"/><circle cx="90" cy="177.16" r="4" fill="#2ca02c"/><circle cx="90" cy="183.34" r="4" fill="#2ca02c"/><circle cx="90" cy="176.96" r="4" fill="#2ca02c"/><circle cx="90" cy="178.62" r="4" fill="#2ca02c"/><circle cx="90" cy="359" r="4" fill="#2ca02c"/><circle cx="90" cy="156.97" r="4" fill="#2ca02c"/><circle cx="90" cy="277.31" r="4" fill="#2ca02c"/><circle cx="90" cy="242.21" r="4" fill="#2ca02c"/><circle cx="90" cy="156.61" r="4" fill="#2ca02c"/><circle cx="181.43" cy="218.53" r="4" fill="#2ca02c"/><circle cx="181.43" cy="237.96" r="4" fill="#2ca02c"/><circle cx="181.43" cy="225.34" r="4" fill="#2ca02c"/><circle cx="181.43" cy="220.11" r="4" fill="#2ca02c"/><circle cx="181.43" cy="198.3" r="4" fill="#2ca02c"/><circle cx="181.43" cy="154.88" r="4" fill="#2ca02c"/><circle cx="181.43" cy="172.09" r="4" fill="#2ca02c"/><circle cx="181.43" cy="176.07" r="4" fill="#2ca02c"/><circle cx="181.43" cy="172.03" r="4" fill="#2ca02c"/><circle cx="181.43" cy="172.87" r="4" fill="#2ca02c"/><circle cx="181.43" cy="386.06" r="4" fill="#2ca02c"/><circle cx="181.43" cy="157" r="4" fill="#2ca02c"/><circle cx="181.43" cy="225.76" r="4" fill="#2ca02c"/><circle cx="181.43" cy="155.16" r="4" fill="#2ca02c"/><circle cx="181.43" cy="156.46" r="4" fill="#2ca02c"/><circle cx="364.29" cy="232.53" r="4" fill="#2ca02c"/><circle cx="364.29" cy="252.2" r="4" fill="#2ca02c"/><circle cx="364.29" cy="240.31" r="4" fill="#2ca02c"/><circle cx="364.29" cy="235.59" r="4" fill="#2ca02c"/><circle cx="364.29" cy="216.62" r="4" fill="#2ca02c"/><circle cx="364.29" cy="197.29" r="4" fill="#2ca02c"/><circle cx="364.29" cy="193.96" r="4" fill="#2ca02c"/><circle cx="364.29" cy="196.18" r="4" fill="#2ca02c"/><circle cx="364.29" cy="193.6" r="4" fill="#2ca02c"/><circle cx="364.29" cy="194.31" r="4" fill="#2ca02c"/><circle cx="364.29" cy="386.56" r="4" fill="#2ca02c"/><circle cx="364.29" cy="208.17" r="4" fill="#2ca02c"/><circle cx="364.29" cy="220.53" r="4" fill="#2ca02c"/><circle cx="364.29" cy="202.45" r="4" fill="#2ca02c"/><circle cx="364.29" cy="207.27" r="4" fill="#2ca02c"/><circle cx="730" cy="259.41" r="4" fill="#2ca02c"/><circle cx="730" cy="275.95" r="4" fill="#2ca02c"/><circle cx="730" cy="266.23" r="4" fill="#2ca02c"/><circle cx="730" cy="260.35" r="4" fill="#2ca02c"/><circle cx="730" cy="228.88" r="4" fill="#2ca02c"/><circle cx="730" cy="225.3" r="4" fill="#2ca02c"/><circle cx="730" cy="254.8" r="4" fill="#2ca02c"/><circle cx="730" cy="260.6" r="4" fill="#2ca02c"/><circle cx="730" cy="254.05" r="4" fill="#2ca02c"/><circle cx="730" cy="256.44" r="4" fill="#2ca02c"/><circle cx="730" cy="386.4" r="4" fill="#2ca02c"/><circle cx="730" cy="229.74" r="4" fill="#2ca02c"/><circle cx="730" cy="219.34" r="4" fill="#2ca02c"/><circle cx="730" cy="225.89" r="4" fill="#2ca02c"/><circle cx="730" cy="227.96" r="4" fill="#2ca02c"/><circle cx="90" cy="210.24" r="4" fill="#2ca02c"/><circle cx="90" cy="229.61" r="4" fill="#2ca02c"/><circle cx="90" cy="215.95" r="4" fill="#2ca02c"/><circle cx="90" cy="212.43" r="4" fill="#2ca02c"/><circle cx="90" cy="187.4" r="4" fill="#2ca02c"/><circle cx="90" cy="142.91" r="4" fill="#2ca02c"/><circle cx="90" cy="160.06" r="4" fill="#2ca02c"/><circle cx="90" cy="163.67" r="4" fill="#2ca02c"/><circle cx="90" cy="160.26" r="4" fill="#2ca02c"/><circle cx="90" cy="161.27" r="4" fill="#2ca02c"/><circle cx="90" cy="355.96" r="4" fill="#2ca02c"/><circle cx="90" cy="144.97" r="4" fill="#2ca02c"/><circle cx="90" cy="268.91" r="4" fill="#2ca02c"/><circle cx="90" cy="233.82" r="4" fill="#2ca02c"/><circle cx="90" cy="144.29" r="4" fill="#2ca02c"/><circle cx="181.43" cy="147.91" r="4" fill="#2ca02c"/><circle cx="181.43" cy="151.82" r="4" fill="#2ca02c"/><circle cx="181.43" cy="150.48" r="4" fill="#2ca02c"/><circle cx="181.43" cy="149.09" r="4" fill="#2ca02c"/><circle cx="181.43" cy="140.07" r="4" fill="#2ca02c"/><circle cx="181.43" cy="129.9" r="4" fill="#2ca02c"/><circle cx="181.43" cy="133.04" r="4" fill="#2ca02c"/><circle cx="181.43" cy="132.77" r="4" fill="#2ca02c"/><circle cx="181.43" cy="132.96" r="4" fill="#2ca02c"/><circle cx="181.43" cy="132.96" r="4" fill="#2ca02c"/><circle cx="181.43" cy="388.05" r="4" fill="#2ca02c"/><circle cx="181.43" cy="129.31" r="4" fill="#2ca02c"/><circle cx="181.43" cy="204.49" r="4" fill="#2ca02c"/><circle cx="181.43" cy="128.32" r="4" fill="#2ca02c"/><circle cx="181.43" cy="128.06" r="4" fill="#2ca02c"/><circle cx="364.29" cy="148.12" r="4" fill="#2ca02c"/><circle cx="364.29" cy="154.47" r="4" fill="#2ca02c"/><circle cx="364.29" cy="151.12" r="4" fill="#2ca02c"/><circle cx="364.29" cy="149.28" r="4" fill="#2ca02c"/><circle cx="364.29" cy="144.25" r="4" fill="#2ca02c"/><circle cx="364.29" cy="157.93" r="4" fill="#2ca02c"/><circle cx="364.29" cy="138.22" r="4" fill="#2ca02c"/><circle cx="364.29" cy="138.74" r="4" fill="#2ca02c"/><circle cx="364.29" cy="138.21" r="4" fill="#2ca02c"/><circle cx="364.29" cy="138.44" r="4" fill="#2ca02c"/><circle cx="364.29" cy="389.53" r="4" fill="#2ca02c"/><circle cx="364.29" cy="167.41" r="4" fill="#2ca02c"/><circle cx="364.29" cy="183.08" r="4" fill="#2ca02c"/><circle cx="364.29" cy="161.2" r="4" fill="#2ca02c"/><circle cx="364.29" cy="166.14" r="4" fill="#2ca02c"/><circle cx="730" cy="157.11" r="4" fill="#2ca02c"/><circle cx="730" cy="163.11" r="4" fill="#2ca02c"/><circle cx="730" cy="159.89" r="4" fill="#2ca02c"/><circle cx="730" cy="158.26" r="4" fill="#2ca02c"/><circle cx="730" cy="150.95" r="4" fill="#2ca02c"/><circle cx="730" cy="154.8" r="4" fill="#2ca02c"/><circle cx="730" cy="187.34" r="4" fill="#2ca02c"/><circle cx="730" cy="192.8" r="4" fill="#2ca02c"/><circle cx="730" cy="184.28" r="4" fill="#2ca02c"/><circle cx="730" cy="185.81" r="4" fill="#2ca02c"/><circle cx="730" cy="389.49" r="4" fill="#2ca02c"/><circle cx="730" cy="161.17" r="4" fill="#2ca02c"/><circle cx="730" cy="183.6" r="4" fill="#2ca02c"/><circle cx="730" cy="157.43" r="4" fill="#2ca02c"/><circle cx="730" cy="159.88" r="4" fill="#2ca02c"/><circle cx="90" cy="145.96" r="4" fill="#2ca02c"/><circle cx="90" cy="150.97" r="4" fill="#2ca02c"/><circle cx="90" cy="149.58" r="4" fill="#2ca02c"/><circle cx="90" cy="147.46" r="4" fill="#2ca02c"/><circle cx="90" cy="134.26" r="4" fill="#2ca02c"/><circle cx="90" cy="127.97" r="4" fill="#2ca02c"/><circle cx="90" cy="131.42" r="4" fill="#2ca02c"/><circle cx="90" cy="131.03" r="4" fill="#2ca02c"/><circle cx="90" cy="131.14" r="4" fill="#2ca02c"/><circle cx="90" cy="131.35" r="4" fill="#2ca02c"/><circle cx="90" cy="358.95" r="4" fill="#2ca02c"/><circle cx="90" cy="128.46" r="4" fill="#2ca02c"/><circle cx="90" cy="258.27" r="4" fill="#2ca02c"/><circle cx="90" cy="224.2" r="4" fill="#2ca02c"/><circle cx="90" cy="127.62" r="4" fill="#2ca02c"/><circle cx="181.43" cy="106.17" r="4" fill="#2ca02c"/><circle cx="181.43" cy="79.2" r="4" fill="#2ca02c"/><circle cx="181.43" cy="87.69" r="4" fill="#2ca02c"/><circle cx="181.43" cy="92.22" r="4" fill="#2ca02c"/><circle cx="181.43" cy="86.39" r="4" fill="#2ca02c"/><circle cx="181.43" cy="83.02" r="4" fill="#2ca02c"/><circle cx="181.43" cy="71.53" r="4" fill="#2ca02c"/><circle cx="181.43" cy="76.99" r="4" fill="#2ca02c"/><circle cx="181.43" cy="74.81" r="4" fill="#2ca02c"/><circle cx="181.43" cy="88.83" r="4" fill="#2ca02c"/><circle cx="181.43" cy="167.96" r="4" fill="#2ca02c"/><circle cx="181.43" cy="66.69" r="4" fill="#2ca02c"/><circle cx="181.43" cy="65.8" r="4" fill="#2ca02c"/><circle cx="181.43" cy="50.82" r="4" fill="#2ca02c"/><circle cx="181.43" cy="50" r="4" fill="#2ca02c"/><circle cx="364.29" cy="159.48" r="4" fill="#2ca02c"/><circle cx="364.29" cy="166.78" r="4" fill="#2ca02c"/><circle cx="364.29" cy="168.75" r="4" fill="#2ca02c"/><circle cx="364.29" cy="164.39" r="4" fill="#2ca02c"/><circle cx="364.29" cy="169.1" r="4" fill="#2ca02c"/><circle cx="364.29" cy="159.63" r="4" fill="#2ca02c"/><circle cx="364.29" cy="157.93" r="4" fill="#2ca02c"/><circle cx="364.29" cy="158.22" r="4" fill="#2ca02c"/><circle cx="364.29" cy="159.42" r="4" fill="#2ca02c"/><circle cx="364.29" cy="157.57" r="4" fill="#2ca02c"/><circle cx="364.29" cy="255.71" r="4" fill="#2ca02c"/><circle cx="364.29" cy="160.78" r="4" fill="#2ca02c"/><circle cx="364.29" cy="172.55" r="4" fill="#2ca02c"/><circle cx="364.29" cy="161.86" r="4" fill="#2ca02c"/><circle cx="364.29" cy="165.86" r="4" fill="#2ca02c"/><circle cx="730" cy="242.76" r="4" fill="#2ca02c"/><circle cx="730" cy="239.33" r="4" fill="#2ca02c"/><circle cx="730" cy="233.23" r="4" fill="#2ca02c"/><circle cx="730" cy="214.35" r="4" fill="#2ca02c"/><circle cx="730" cy="238.48" r="4" fill="#2ca02c"/><circle cx="730" cy="209.44" r="4" fill="#2ca02c"/><circle cx="730" cy="225.91" r="4" fill="#2ca02c"/><circle cx="730" cy="234.09" r="4" fill="#2ca02c"/><circle cx="730" cy="228.47" r="4" fill="#2ca02c"/><circle cx="730" cy="226.9" r="4" fill="#2ca02c"/><circle cx="730" cy="301.35" r="4" fill="#2ca02c"/><circle cx="730" cy="221.15" r="4" fill="#2ca02c"/><circle cx="730" cy="234.75" r="4" fill="#2ca02c"/><circle cx="730" cy="222.88" r="4" fill="#2ca02c"/><circle cx="730" cy="234.25" r="4" fill="#2ca02c"/><circle cx="90" cy="141.41" r="4" fill="#2ca02c"/><circle cx="90" cy="146.65" r="4" fill="#2ca02c"/><circle cx="90" cy="148.19" r="4" fill="#2ca02c"/><circle cx="90" cy="141.54" r="4" fill="#2ca02c"/><circle cx="90" cy="141.1" r="4" fill="#2ca02c"/><circle cx="90" cy="158.67" r="4" fill="#2ca02c"/><circle cx="90" cy="147.84" r="4" fill="#2ca02c"/><circle cx="90" cy="158.86" r="4" fill="#2ca02c"/><circle cx="90" cy="149.26" r="4" fill="#2ca02c"/><circle cx="90" cy="148.77" r="4" fill="#2ca02c"/><circle cx="90" cy="253.03" r="4" fill="#2ca02c"/><circle cx="90" cy="160.65" r="4" fill="#2ca02c"/><circle cx="90" cy="181.5" r="4" fill="#2ca02c"/><circle cx="90" cy="172.15" r="4" fill="#2ca02c"/><circle cx="90" cy="156.52" r="4" fill="#2ca02c"/><circle cx="181.43" cy="143.31" r="4" fill="#2ca02c"/><circle cx="181.43" cy="146.13" r="4" fill="#2ca02c"/><circle cx="181.43" cy="145.35" r="4" fill="#2ca02c"/><circle cx="181.43" cy="144.17" r="4" fill="#2ca02c"/><circle cx="181.43" cy="134.17" r="4" fill="#2ca02c"/><circle cx="181.43" cy="124.24" r="4" fill="#2ca02c"/><circle cx="181.43" cy="126.59" r="4" fill="#2ca02c"/><circle cx="181.43" cy="126.98" r="4" fill="#2ca02c"/><circle cx="181.43" cy="126.63" r="4" fill="#2ca02c"/><circle cx="181.43" cy="126.7" r="4" fill="#2ca02c"/><circle cx="181.43" cy="388.37" r="4" fill="#2ca02c"/><circle cx="181.43" cy="125.58" r="4" fill="#2ca02c"/><circle cx="181.43" cy="281.74" r="4" fill="#2ca02c"/><circle cx="181.43" cy="126.83" r="4" fill="#2ca02c"/><circle cx="181.43" cy="126.51" r="4" fill="#2ca02c"/><circle cx="364.29" cy="144.81" r="4" fill="#2ca02c"/><circle cx="364.29" cy="150.62" r="4" fill="#2ca02c"/><circle cx="364.29" cy="146.75" r="4" fill="#2ca02c"/><circle cx="364.29" cy="145.74" r="4" fill="#2ca02c"/><circle cx="364.29" cy="140.56" r="4" fill="#2ca02c"/><circle cx="364.29" cy="154.65" r="4" fill="#2ca02c"/><circle cx="364.29" cy="134.06" r="4" fill="#2ca02c"/><circle cx="364.29" cy="134.66" r="4" fill="#2ca02c"/><circle cx="364.29" cy="134.07" r="4" fill="#2ca02c"/><circle cx="364.29" cy="134.31" r="4" fill="#2ca02c"/><circle cx="364.29" cy="387.92" r="4" fill="#2ca02c"/><circle cx="364.29" cy="164.08" r="4" fill="#2ca02c"/><circle cx="364.29" cy="239.93" r="4" fill="#2ca02c"/><circle cx="364.29" cy="158.03" r="4" fill="#2ca02c"/><circle cx="364.29" cy="162.92" r="4" fill="#2ca02c"/><circle cx="730" cy="153.53" r="4" fill="#2ca02c"/><circle cx="730" cy="159.46" r="4" fill="#2ca02c"/><circle cx="730" cy="155.76" r="4" fill="#2ca02c"/><circle cx="730" cy="154.18" r="4" fill="#2ca02c"/><circle cx="730" cy="146.88" r="4" fill="#2ca02c"/><circle cx="730" cy="152.72" r="4" fill="#2ca02c"/><circle cx="730" cy="194.3" r="4" fill="#2ca02c"/><circle cx="730" cy="195.83" r="4" fill="#2ca02c"/><circle cx="730" cy="194.67" r="4" fill="#2ca02c"/><circle cx="730" cy="195.4" r="4" fill="#2ca02c"/><circle cx="730" cy="389.89" r="4" fill="#2ca02c"/><circle cx="730" cy="157.49" r="4" fill="#2ca02c"/><circle cx="730" cy="240.16" r="4" fill="#2ca02c"/><circle cx="730" cy="154.21" r="4" fill="#2ca02c"/><circle cx="730" cy="157.14" r="4" fill="#2ca02c"/><circle cx="90" cy="144.22" r="4" fill="#2ca02c"/><circle cx="90" cy="149.19" r="4" fill="#2ca02c"/><circle cx="90" cy="147.72" r="4" fill="#2ca02c"/><circle cx="90" cy="145.77" r="4" fill="#2ca02c"/><circle cx="90" cy="132.3" r="4" fill="#2ca02c"/><circle cx="90" cy="126.59" r="4" fill="#2ca02c"/><circle cx="90" cy="129.25" r="4" fill="#2ca02c"/><circle cx="90" cy="129.72" r="4" fill="#2ca02c"/><circle cx="90" cy="129.14" r="4" fill="#2ca02c"/><circle cx="90" cy="129.35" r="4" fill="#2ca02c"/><circle cx="90" cy="360.05" r="4" fill="#2ca02c"/><circle cx="90" cy="126.99" r="4" fill="#2ca02c"/><circle cx="90" cy="357.2" r="4" fill="#2ca02c"/><circle cx="90" cy="223.18" r="4" fill="#2ca02c"/><circle cx="90" cy="125.86" r="4" fill="#2ca02c"/><circle cx="181.43" cy="146.26" r="4" fill="#2ca02c"/><circle cx="181.43" cy="150.22" r="4" fill="#2ca02c"/><circle cx="181.43" cy="148.25" r="4" fill="#2ca02c"/><circle cx="181.43" cy="148.05" r="4" fill="#2ca02c"/><circle cx="181.43" cy="137.52" r="4" fill="#2ca02c"/><circle cx="181.43" cy="128" r="4" fill="#2ca02c"/><circle cx="181.43" cy="130.26" r="4" fill="#2ca02c"/><circle cx="181.43" cy="130.56" r="4" fill="#2ca02c"/><circle cx="181.43" cy="130.26" r="4" fill="#2ca02c"/><circle cx="181.43" cy="130.38" r="4" fill="#2ca02c"/><circle cx="181.43" cy="389.38" r="4" fill="#2ca02c"/><circle cx="181.43" cy="128.45" r="4" fill="#2ca02c"/><circle cx="181.43" cy="214.73" r="4" fill="#2ca02c"/><circle cx="181.43" cy="128.13" r="4" fill="#2ca02c"/><circle cx="181.43" cy="127.72" r="4" fill="#2ca02c"/><circle cx="364.29" cy="147.92" r="4" fill="#2ca02c"/><circle cx="364.29" cy="153.28" r="4" fill="#2ca02c"/><circle cx="364.29" cy="149.77" r="4" fill="#2ca02c"/><circle cx="364.29" cy="148.5" r="4" fill="#2ca02c"/><circle cx="364.29" cy="143.62" r="4" fill="#2ca02c"/><circle cx="364.29" cy="157.96" r="4" fill="#2ca02c"/><circle cx="364.29" cy="137.88" r="4" fill="#2ca02c"/><circle cx="364.29" cy="138.81" r="4" fill="#2ca02c"/><circle cx="364.29" cy="137.96" r="4" fill="#2ca02c"/><circle cx="364.29" cy="137.91" r="4" fill="#2ca02c"/><circle cx="364.29" cy="389.52" r="4" fill="#2ca02c"/><circle cx="364.29" cy="167.44" r="4" fill="#2ca02c"/><circle cx="364.29" cy="196.4" r="4" fill="#2ca02c"/><circle cx="364.29" cy="161.67" r="4" fill="#2ca02c"/><circle cx="364.29" cy="166.8" r="4" fill="#2ca02c"/><circle cx="730" cy="155.37" r="4" fill="#2ca02c"/><circle cx="730" cy="161.2" r="4" fill="#2ca02c"/><circle cx="730" cy="157.02" r="4" fill="#2ca02c"/><circle cx="730" cy="155.99" r="4" fill="#2ca02c"/><circle cx="730" cy="149.86" r="4" fill="#2ca02c"/><circle cx="730" cy="154.92" r="4" fill="#2ca02c"/><circle cx="730" cy="170.78" r="4" fill="#2ca02c"/><circle cx="730" cy="172.44" r="4" fill="#2ca02c"/><circle cx="730" cy="171.05" r="4" fill="#2ca02c"/><circle cx="730" cy="171.07" r="4" fill="#2ca02c"/><circle cx="730" cy="390" r="4" fill="#2ca02c"/><circle cx="730" cy="159.38" r="4" fill="#2ca02c"/><circle cx="730" cy="195.44" r="4" fill="#2ca02c"/><circle cx="730" cy="156.54" r="4" fill="#2ca02c"/><circle cx="730" cy="159.13" r="4" fill="#2ca02c"/><circle cx="90" cy="147.7" r="4" fill="#2ca02c"/><circle cx="90" cy="152.58" r="4" fill="#2ca02c"/><circle cx="90" cy="151.39" r="4" fill="#2ca02c"/><circle cx="90" cy="149.23" r="4" fill="#2ca02c"/><circle cx="90" cy="135.67" r="4" fill="#2ca02c"/><circle cx="90" cy="130.23" r="4" fill="#2ca02c"/><circle cx="90" cy="132.47" r="4" fill="#2ca02c"/><circle cx="90" cy="133.26" r="4" fill="#2ca02c"/><circle cx="90" cy="132.66" r="4" fill="#2ca02c"/><circle cx="90" cy="132.76" r="4" fill="#2ca02c"/><circle cx="90" cy="360.33" r="4" fill="#2ca02c"/><circle cx="90" cy="129.92" r="4" fill="#2ca02c"/><circle cx="90" cy="274.03" r="4" fill="#2ca02c"/><circle cx="90" cy="224.78" r="4" fill="#2ca02c"/><circle cx="90" cy="129.47" r="4" fill="#2ca02c"/></svg>